{"title":"War Of The Worlds (2005) 720p BLuRay x264 Dual Audio [Eng DD 5.1","uid":11408784,"size":1276391575,"categoryP":"video","categoryS":"hd___movies","magnet":"?xt=urn:btih:49a83d431b51e2a9ea9cce8199ba62d8cb1a15e2&amp;dn=War+Of+The+Worlds+%282005%29+720p+BLuRay+x264+Dual+Audio+%5BEng+DD+5.1&amp;tr=udp%3A%2F%2Ftracker.openbittorrent.com%3A80&amp;tr=udp%3A%2F%2Fopen.demonii.com%3A1337&amp;tr=udp%3A%2F%2Ftracker.coppersurfer.tk%3A6969&amp;tr=udp%3A%2F%2Fexodus.desync.com%3A6969","seeders":16,"leechers":6,"uploader":"Xdesiars","files":5,"time":1415504710,"description":"Format                                   : Matroska\nFormat version                           : Version 2\nFile size                                : 1.18 GiB\nDuration                                 : 1h 56mn\nOverall bit rate                         : 1 450 Kbps\nMovie name                               : War Of The Worlds (2005) by XdesiArsenal [ExD-XMR]\nEncoded date                             : UTC 2014-11-07 19:13:26\nWriting application                      : mkvmerge v5.0.1 ('Es ist Sommer') built on Nov 23 2011 20:48:57\nWriting library                          : libebml v1.2.2 + libmatroska v1.3.0\n\nVideo\nID                                       : 1\nFormat                                   : AVC\nFormat/Info                              : Advanced Video Codec\nFormat profile                           : &lt;a class=&quot;__cf_email__&quot; href=&quot;/cdn-cgi/l/email-protection&quot; data-cfemail=&quot;bff7d6d8d7fff38c918e&quot;&gt;[email&amp;#160;protected]&lt;/a&gt;&lt;script cf-hash='f9e31' type=&quot;text/javascript&quot;&gt;\n/* &lt;![CDATA[ */!function(){try{var t=&quot;currentScript&quot;in document?document.currentScript:function(){for(var t=document.getElementsByTagName(&quot;script&quot;),e=t.length;e--;)if(t[e].getAttribute(&quot;cf-hash&quot;))return t[e]}();if(t&amp;&amp;t.previousSibling){var e,r,n,i,c=t.previousSibling,a=c.getAttribute(&quot;data-cfemail&quot;);if(a){for(e=&quot;&quot;,r=parseInt(a.substr(0,2),16),n=2;a.length-n;n+=2)i=parseInt(a.substr(n,2),16)^r,e+=String.fromCharCode(i);e=document.createTextNode(e),c.parentNode.replaceChild(e,c)}}}catch(u){}}();/* ]]&gt; */&lt;/script&gt;\nFormat settings, CABAC                   : Yes\nFormat settings, ReFrames                : 4 frames\nMuxing mode                              : Header stripping\nCodec ID                                 : V_MPEG4/ISO/AVC\nDuration                                 : 1h 56mn\nBit rate                                 : 1 037 Kbps\nNominal bit rate                         : 1 100 Kbps\nWidth                                    : 1 280 pixels\nHeight                                   : 720 pixels\nDisplay aspect ratio                     : 1.85:1\nFrame rate mode                          : Constant\nFrame rate                               : 23.976 fps\nColor space                              : YUV\nChroma subsampling                       : 4:2:0\nBit depth                                : 8 bits\nScan type                                : Progressive\nBits/(Pixel*Frame)                       : 0.047\nStream size                              : 864 MiB (72%)\nTitle                                    : War Of The Worlds (2005) by XdesiArsenal [ExD-XMR]\nWriting library                          : x264 core 112\nLanguage                                 : English\nDefault                                  : Yes\nForced                                   : No\nColor primaries                          : BT.709\nTransfer characteristics                 : BT.709\nMatrix coefficients                      : BT.709\n\nAudio #1\nID                                       : 2\nFormat                                   : AC-3\nFormat/Info                              : Audio Coding 3\nMode extension                           : CM (complete main)\nFormat settings, Endianness              : Big\nMuxing mode                              : Header stripping\nCodec ID                                 : A_AC3\nDuration                                 : 1h 56mn\nBit rate mode                            : Constant\nBit rate                                 : 192 Kbps\nChannel(s)                               : 6 channels\nChannel positions                        : Front: L C R, Side: L R, LFE\nSampling rate                            : 48.0 KHz\nBit depth                                : 16 bits\nCompression mode                         : Lossy\nStream size                              : 160 MiB (13%)\nTitle                                    : XdesiArsenal\nLanguage                                 : English\nDefault                                  : No\nForced                                   : No\n\nAudio #2\nID                                       : 3\nFormat                                   : MPEG Audio\nFormat version                           : Version 1\nFormat profile                           : Layer 3\nMode                                     : Joint stereo\nMode extension                           : MS Stereo\nMuxing mode                              : Header stripping\nCodec ID                                 : A_MPEG/L3\nCodec ID/Hint                            : MP3\nDuration                                 : 1h 56mn\nBit rate mode                            : Constant\nBit rate                                 : 192 Kbps\nChannel(s)                               : 2 channels\nSampling rate                            : 48.0 KHz\nCompression mode                         : Lossy\nDelay relative to video                  : 620ms\nStream size                              : 160 MiB (13%)\nTitle                                    : XdesiArsenal\nWriting library                          : LAME3.96\nLanguage                                 : Hindi\nDefault                                  : Yes\nForced                                   : No\n\nMenu\n00:00:00.000                             : en:Chapter 1\n00:04:16.005                             : en:Chapter 2\n00:08:18.414                             : en:Chapter 3\n00:13:17.379                             : en:Chapter 4\n00:19:19.867                             : en:Chapter 5\n00:25:29.402                             : en:Chapter 6\n00:29:45.241                             : en:Chapter 7\n00:34:32.653                             : en:Chapter 8\n00:38:47.116                             : en:Chapter 9\n00:43:53.422                             : en:Chapter 10\n00:49:03.732                             : en:Chapter 11\n00:55:17.105                             : en:Chapter 12\n00:59:21.015                             : en:Chapter 13\n01:04:44.171                             : en:Chapter 14\n01:10:37.233                             : en:Chapter 15\n01:15:53.298                             : en:Chapter 16\n01:20:28.990                             : en:Chapter 17\n01:24:48.166                             : en:Chapter 18\n01:29:03.963                             : en:Chapter 19\n01:33:59.884                             : en:Chapter 20\n01:36:59.605                             : en:Chapter 21\n01:41:07.561                             : en:Chapter 22\n01:45:27.487                             : en:Chapter 23\n01:49:42.492                             : en:Chapter 24","torrent":{"xt":"urn:btih:49a83d431b51e2a9ea9cce8199ba62d8cb1a15e2","amp;dn":"War+Of+The+Worlds+%282005%29+720p+BLuRay+x264+Dual+Audio+%5BEng+DD+5.1","amp;tr":["udp%3A%2F%2Ftracker.openbittorrent.com%3A80","udp%3A%2F%2Fopen.demonii.com%3A1337","udp%3A%2F%2Ftracker.coppersurfer.tk%3A6969","udp%3A%2F%2Fexodus.desync.com%3A6969"],"infoHash":"49a83d431b51e2a9ea9cce8199ba62d8cb1a15e2","infoHashBuffer":{"type":"Buffer","data":[73,168,61,67,27,81,226,169,234,156,206,129,153,186,98,216,203,26,21,226]},"announce":[],"urlList":[]}}